<svg version="1.1" id="Layer_1" xmlns="http://www.w3.org/2000/svg" x="0" y="0" viewBox="0 0 1000 1000" style="enable-background:new 0 0 1000 1000" xml:space="preserve"><style>.st0{fill:#4d4d4d}.st1{fill:#4dabf7}.st2{fill:#ccc}</style><path class="st0" d="M225.83 454.7h-27.22v77.86h-38.93V454.7h-13.84v-31.95h13.84V408.2c0-16.17 4.1-28.64 12.31-37.39 10.18-10.89 22.4-16.33 36.68-16.33 5.68 0 11.4 1.34 17.16 4.01v33.74c-5.26-2.92-9.78-4.38-13.55-4.38-5.26 0-9.11 2.02-11.55 6.06-1.41 2.3-2.12 7.95-2.12 16.98v11.87h27.22v31.94zM364.04 532.56h-38.93v-12.19c-3.7 4.66-7.45 8.05-11.23 10.18-6.62 3.71-14.14 5.56-22.57 5.56-13.63 0-25.76-4.69-36.4-14.07-12.68-11.19-19.03-26.01-19.03-44.45 0-18.75 6.5-33.73 19.5-44.92 10.32-8.9 22.18-13.36 35.57-13.36 7.8 0 15.12 1.62 21.98 4.85 3.94 1.89 7.99 5.01 12.17 9.35v-10.77h38.93v109.82zm-37.75-54.9c0-6.91-2.43-12.78-7.3-17.61-4.87-4.83-10.76-7.24-17.66-7.24-7.7 0-14.02 2.91-18.96 8.72-4 4.71-6.01 10.09-6.01 16.13 0 6.05 2 11.42 6.01 16.13 4.87 5.81 11.19 8.72 18.96 8.72 6.99 0 12.89-2.39 17.72-7.18 4.83-4.8 7.24-10.69 7.24-17.67zM656.67 484.87h-81.53c0 16.49 7.92 24.73 23.77 24.73 8.08 0 14.28-3.47 18.59-10.41h37.63c-3 9.91-7.42 17.58-13.25 23-10.57 9.83-24.73 14.75-42.48 14.75-22.56 0-39.52-6.86-50.88-20.59-8.52-10.25-12.78-22.76-12.78-37.51 0-17.51 5.33-31.75 15.97-42.72 10.65-10.96 25.68-16.45 45.08-16.45 23.9 0 40.98 8.69 51.24 26.08 5.76 9.8 8.64 21.18 8.64 34.14v4.98zm-36.33-22.12c-2.75-12.38-10.08-18.58-22.01-18.58-6.59 0-11.93 1.97-16.01 5.91-3.22 3.14-5.26 7.36-6.12 12.67h44.14z"/><path class="st1" d="M724.47 532.56h-42.01V371.04h42.01v161.52zM854.16 406.07h-34.79v126.49h-42.01V406.07h-34.2v-35.02h110.99v35.02z"/><path class="st2" d="M78.11 620.45H38.85c0 7.94 3.82 11.91 11.45 11.91 3.89 0 6.87-1.67 8.95-5.01h18.12c-1.44 4.77-3.57 8.46-6.38 11.08-5.09 4.73-11.91 7.1-20.46 7.1-10.86 0-19.03-3.3-24.5-9.91-4.1-4.94-6.15-10.96-6.15-18.06 0-8.43 2.56-15.29 7.69-20.57 5.13-5.28 12.36-7.92 21.71-7.92 11.51 0 19.73 4.19 24.67 12.56 2.77 4.72 4.16 10.2 4.16 16.44v2.38zM60.62 609.8c-1.32-5.96-4.86-8.95-10.6-8.95-3.17 0-5.74.95-7.71 2.85-1.55 1.51-2.53 3.54-2.95 6.1h21.26zM146.54 641.59c-6.61 2.62-12.73 3.93-18.35 3.93-9.8 0-18.57-3.13-26.32-9.4-9.88-8.01-14.81-18.46-14.81-31.34 0-12.91 4.94-23.38 14.81-31.39 7.75-6.27 16.58-9.4 26.49-9.4 5.39 0 11.45 1.31 18.18 3.93v24.22c-1.9-2.33-3.84-4.09-5.82-5.28-3.61-2.18-7.49-3.27-11.64-3.27-5.25 0-9.81 1.58-13.69 4.74-4.91 4-7.36 9.48-7.36 16.45 0 6.93 2.45 12.4 7.36 16.4 3.88 3.16 8.44 4.74 13.69 4.74 4.15 0 8.03-1.09 11.64-3.27 1.94-1.15 3.88-2.91 5.82-5.28v24.22zM219.13 616.98c0 7.33-2.41 13.62-7.24 18.86-5.85 6.38-14.04 9.57-24.56 9.57-10.56 0-18.77-3.19-24.61-9.57-4.82-5.24-7.24-11.68-7.24-19.32 0-6.87 2.43-12.97 7.29-18.29 5.89-6.42 14.26-9.63 25.13-9.63 9.99 0 17.97 3.21 23.93 9.63 4.87 5.25 7.3 11.49 7.3 18.75zm-19.49 0c0-3.43-1.2-6.34-3.6-8.73-2.4-2.39-5.3-3.58-8.71-3.58-3.86 0-7 1.45-9.41 4.35-1.97 2.33-2.95 4.98-2.95 7.96 0 3.02.98 5.69 2.95 8.01 2.42 2.9 5.56 4.35 9.41 4.35 3.44 0 6.35-1.19 8.73-3.58 2.39-2.38 3.58-5.31 3.58-8.78zM319.41 643.42h-18.75V617.3c0-4.55-.48-7.66-1.42-9.33-1.41-2.47-3.51-3.7-6.32-3.7-3.12 0-5.51 1.35-7.18 4.04-1.18 1.9-1.77 4.89-1.77 8.99v26.12h-18.75V617.3c0-4.55-.38-7.51-1.14-8.88-1.52-2.73-3.86-4.1-7.01-4.1-2.93 0-5.2 1.18-6.84 3.53-.61.83-1.05 1.98-1.31 3.44-.27 1.46-.4 3.46-.4 6v26.12h-18.75v-52.88h18.75v6.5c2.21-2.13 4.22-3.68 6.05-4.67 3.31-1.79 7-2.68 11.07-2.68 5.21 0 9.55 1.35 13.01 4.05 1.75 1.37 3.42 3.3 5.02 5.81 1.45-2.36 3.06-4.22 4.85-5.58 3.77-2.89 8.07-4.33 12.9-4.33 3.96 0 7.48.95 10.56 2.85 3.31 2.09 5.48 4.92 6.51 8.49.61 2.17.91 4.86.91 8.09v34.36zM421.68 643.42h-18.75V617.3c0-4.55-.48-7.66-1.42-9.33-1.41-2.47-3.51-3.7-6.32-3.7-3.12 0-5.51 1.35-7.18 4.04-1.18 1.9-1.77 4.89-1.77 8.99v26.12H367.5V617.3c0-4.55-.38-7.51-1.14-8.88-1.52-2.73-3.86-4.1-7.01-4.1-2.93 0-5.2 1.18-6.84 3.53-.61.83-1.05 1.98-1.31 3.44-.27 1.46-.4 3.46-.4 6v26.12h-18.75v-52.88h18.75v6.5c2.21-2.13 4.22-3.68 6.05-4.67 3.31-1.79 7-2.68 11.07-2.68 5.21 0 9.55 1.35 13.01 4.05 1.75 1.37 3.42 3.3 5.02 5.81 1.45-2.36 3.06-4.22 4.85-5.58 3.77-2.89 8.07-4.33 12.9-4.33 3.96 0 7.48.95 10.56 2.85 3.31 2.09 5.48 4.92 6.51 8.49.61 2.17.91 4.86.91 8.09v34.36zM490.46 620.45H451.2c0 7.94 3.82 11.91 11.45 11.91 3.89 0 6.87-1.67 8.95-5.01h18.12c-1.44 4.77-3.57 8.46-6.38 11.08-5.09 4.73-11.91 7.1-20.46 7.1-10.86 0-19.03-3.3-24.5-9.91-4.1-4.94-6.15-10.96-6.15-18.06 0-8.43 2.56-15.29 7.69-20.57 5.13-5.28 12.36-7.92 21.71-7.92 11.51 0 19.73 4.19 24.67 12.56 2.77 4.72 4.16 10.2 4.16 16.44v2.38zm-17.5-10.65c-1.32-5.96-4.86-8.95-10.6-8.95-3.17 0-5.74.95-7.71 2.85-1.55 1.51-2.53 3.54-2.95 6.1h21.26zM540.77 607.75c-2.61-1.25-5.27-1.88-7.96-1.88-6.14 0-10.11 2.53-11.93 7.58-.68 1.82-1.02 4.27-1.02 7.35v22.62h-18.75v-52.88h18.75v8.66c1.97-3.08 4.09-5.3 6.37-6.67 3.07-1.82 6.7-2.73 10.91-2.73.99 0 2.2.06 3.64.17v17.78zM588.97 642.28c-3.87 1.94-7.94 2.91-12.19 2.91-9.65 0-17.3-3.27-22.96-9.8-4.56-5.28-6.84-11.4-6.84-18.35 0-6.99 2.28-13.1 6.84-18.35 5.66-6.53 13.31-9.8 22.96-9.8 4.33 0 8.39.99 12.19 2.96v15.9c-3.3-2.32-6.52-3.48-9.66-3.48-3.71 0-6.78 1.2-9.21 3.59s-3.64 5.45-3.64 9.17 1.21 6.78 3.64 9.17 5.49 3.59 9.21 3.59c3.11 0 6.33-1.14 9.66-3.42v15.91zM655.75 620.45h-39.26c0 7.94 3.82 11.91 11.45 11.91 3.89 0 6.87-1.67 8.95-5.01h18.12c-1.44 4.77-3.57 8.46-6.38 11.08-5.09 4.73-11.91 7.1-20.46 7.1-10.86 0-19.03-3.3-24.5-9.91-4.1-4.94-6.15-10.96-6.15-18.06 0-8.43 2.56-15.29 7.69-20.57 5.13-5.28 12.36-7.92 21.71-7.92 11.51 0 19.73 4.19 24.67 12.56 2.77 4.72 4.16 10.2 4.16 16.44v2.38zm-17.49-10.65c-1.32-5.96-4.86-8.95-10.6-8.95-3.17 0-5.74.95-7.71 2.85-1.55 1.51-2.53 3.54-2.95 6.1h21.26zM754.38 617.69c0 13.16-5.77 21.73-17.32 25.73-4.03 1.41-8.36 2.11-12.99 2.11-9.72 0-18.75-2.94-27.06-8.83l8.66-16.3c6.09 5.51 12.05 8.26 17.87 8.26 2.63 0 4.85-.61 6.68-1.84 2.13-1.38 3.2-3.34 3.2-5.87 0-2.3-1.18-4.22-3.54-5.76-1.75-1.15-4.7-2.32-8.85-3.51-5.02-1.48-8.18-2.5-9.47-3.07-2.05-.87-3.81-1.9-5.25-3.07-4.15-3.41-6.22-8.57-6.22-15.48 0-7.21 2.15-13.18 6.44-17.93 5.01-5.58 11.7-8.37 20.06-8.37 8.39 0 16.62 2.11 24.67 6.32l-8.09 15.73c-4.42-3.46-8.87-5.18-13.37-5.18-2.17 0-4.11.55-5.83 1.66-1.94 1.26-2.91 2.94-2.91 5.03 0 2.06 1.27 3.83 3.82 5.32 1.14.69 4.57 1.87 10.27 3.55 7.15 2.09 12.25 5.06 15.3 8.9 2.61 3.26 3.93 7.46 3.93 12.6zM796.94 605.87h-10.65v37.55h-18.75v-37.55h-6.15v-15.33h6.15v-15.9h18.75v15.9h10.65v15.33zM865.37 616.98c0 7.33-2.41 13.62-7.24 18.86-5.85 6.38-14.04 9.57-24.56 9.57-10.56 0-18.77-3.19-24.61-9.57-4.82-5.24-7.24-11.68-7.24-19.32 0-6.87 2.43-12.97 7.29-18.29 5.89-6.42 14.26-9.63 25.13-9.63 9.99 0 17.97 3.21 23.93 9.63 4.87 5.25 7.3 11.49 7.3 18.75zm-19.49 0c0-3.43-1.2-6.34-3.6-8.73-2.4-2.39-5.3-3.58-8.7-3.58-3.86 0-7 1.45-9.41 4.35-1.97 2.33-2.95 4.98-2.95 7.96 0 3.02.98 5.69 2.95 8.01 2.42 2.9 5.56 4.35 9.41 4.35 3.44 0 6.35-1.19 8.73-3.58 2.38-2.38 3.57-5.31 3.57-8.78zM915.68 607.75c-2.61-1.25-5.27-1.88-7.96-1.88-6.14 0-10.12 2.53-11.93 7.58-.68 1.82-1.02 4.27-1.02 7.35v22.62h-18.75v-52.88h18.75v8.66c1.97-3.08 4.09-5.3 6.36-6.67 3.07-1.82 6.7-2.73 10.91-2.73.99 0 2.2.06 3.64.17v17.78zM980.12 620.45h-39.26c0 7.94 3.82 11.91 11.45 11.91 3.89 0 6.87-1.67 8.95-5.01h18.12c-1.44 4.77-3.57 8.46-6.38 11.08-5.09 4.73-11.91 7.1-20.46 7.1-10.86 0-19.03-3.3-24.5-9.91-4.1-4.94-6.15-10.96-6.15-18.06 0-8.43 2.56-15.29 7.69-20.57 5.13-5.28 12.36-7.92 21.71-7.92 11.51 0 19.73 4.19 24.67 12.56 2.77 4.72 4.16 10.2 4.16 16.44v2.38zm-17.49-10.65c-1.32-5.96-4.86-8.95-10.6-8.95-3.17 0-5.74.95-7.71 2.85-1.55 1.51-2.53 3.54-2.95 6.1h21.26z"/><path class="st0" d="M225.83 358.48s44.15 16.3 62.1 63.43-29.17 20.2-29.17 20.2-3.03-27.96-32.93-49.88v-33.75zM468.29 473.4l55.02-50.65h-53.25l-40.59 39.52V354.83h-38.93 38.93V532.56h-38.93 38.93v-44.73l42.72 44.73h54.43z"/><path class="st0" d="M429.47 488.66V354.83h-38.93v177.73h38.93z"/></svg>