<svg xmlns="http://www.w3.org/2000/svg" aria-hidden="true" style="width: 0; height: 0; position: absolute; overflow: hidden">
<defs>

<symbol id="heart-icon" viewBox="0 0 24"><path d="m24 41.95-2.05-1.85q-5.3-4.85-8.75-8.375-3.45-3.525-5.5-6.3T4.825 20.4Q4 18.15 4 15.85q0-4.5 3.025-7.525Q10.05 5.3 14.5 5.3q2.85 0 5.275 1.35Q22.2 8 24 10.55q2.1-2.7 4.45-3.975T33.5 5.3q4.45 0 7.475 3.025Q44 11.35 44 15.85q0 2.3-.825 4.55T40.3 25.425q-2.05 2.775-5.5 6.3T26.05 40.1ZM24 38q5.05-4.65 8.325-7.975 3.275-3.325 5.2-5.825 1.925-2.5 2.7-4.45.775-1.95.775-3.9 0-3.3-2.1-5.425T33.5 8.3q-2.55 0-4.75 1.575T25.2 14.3h-2.45q-1.3-2.8-3.5-4.4-2.2-1.6-4.75-1.6-3.3 0-5.4 2.125Q7 12.55 7 15.85q0 1.95.775 3.925.775 1.975 2.7 4.5Q12.4 26.8 15.7 30.1 19 33.4 24 38Zm0-14.85Z"></path></symbol>

<symbol><path id="menu-search-icon" viewBox="0 0 24" d="M-142.05-22.95v-3h20v3H-142.05z M-142.05-33.45v-3h10v3H-142.05z M-142.05-43.95v-3h10v3H-142.05z M-104.15-22.95l-8-8
	c-0.87,0.67-1.8,1.17-2.8,1.5s-2.03,0.5-3.1,0.5c-2.77,0-5.12-0.98-7.08-2.92c-1.95-1.95-2.93-4.31-2.93-7.08s0.98-5.12,2.93-7.08
	s4.31-2.92,7.07-2.92c2.77,0,5.12,0.97,7.08,2.92c1.95,1.95,2.92,4.31,2.92,7.08c0,1.07-0.17,2.1-0.5,3.1c-0.33,1-0.83,1.93-1.5,2.8
	l8,8L-104.15-22.95z M-118.05-31.95c1.93,0,3.58-0.68,4.95-2.05c1.37-1.37,2.05-3.02,2.05-4.95c0-1.93-0.68-3.58-2.05-4.95
	c-1.37-1.37-3.02-2.05-4.95-2.05s-3.58,0.68-4.95,2.05c-1.37,1.37-2.05,3.02-2.05,4.95c0,1.93,0.68,3.58,2.05,4.95
	C-121.63-32.63-119.98-31.95-118.05-31.95z"></path></symbol>

<symbol><path id="shopping-cart-add-icon" d="M23.25 17.35V11.2h-6.2v-3h6.2V2.05h3V8.2h6.15v3h-6.15v6.15ZM14.5 44q-1.5 0-2.55-1.05-1.05-1.05-1.05-2.55 0-1.5 1.05-2.55Q13 36.8 14.5 36.8q1.5 0 2.55 1.05 1.05 1.05 1.05 2.55 0 1.5-1.05 2.55Q16 44 14.5 44Zm20.2 0q-1.5 0-2.55-1.05-1.05-1.05-1.05-2.55 0-1.5 1.05-2.55 1.05-1.05 2.55-1.05 1.5 0 2.55 1.05 1.05 1.05 1.05 2.55 0 1.5-1.05 2.55Q36.2 44 34.7 44ZM14.5 33.65q-2.1 0-3.075-1.7-.975-1.7.025-3.45l3.05-5.55L7 7H3.1V4h5.8l8.5 18.2H32l7.8-14 2.6 1.4-7.65 13.85q-.45.85-1.225 1.3-.775.45-1.825.45h-15l-3.1 5.45h24.7v3Z"></path></symbol>


<symbol><path id="shopping-cart-icon" d="M11 44q-1.2 0-2.1-.9Q8 42.2 8 41V15q0-1.2.9-2.1.9-.9 2.1-.9h5.5v-.5q0-3.15 2.175-5.325Q20.85 4 24 4q3.15 0 5.325 2.175Q31.5 8.35 31.5 11.5v.5H37q1.2 0 2.1.9.9.9.9 2.1v26q0 1.2-.9 2.1-.9.9-2.1.9Zm0-3h26V15h-5.5v4.5q0 .65-.425 1.075Q30.65 21 30 21q-.65 0-1.075-.425-.425-.425-.425-1.075V15h-9v4.5q0 .65-.425 1.075Q18.65 21 18 21q-.65 0-1.075-.425-.425-.425-.425-1.075V15H11v26Zm8.5-29h9v-.5q0-1.9-1.3-3.2Q25.9 7 24 7q-1.9 0-3.2 1.3-1.3 1.3-1.3 3.2ZM11 41V15v26Z"></path></symbol>

<symbol><path id="heart-fill-icon" d="m24 41.95-2.05-1.85q-5.3-4.85-8.75-8.375-3.45-3.525-5.5-6.3T4.825 20.4Q4 18.15 4 15.85q0-4.5 3.025-7.525Q10.05 5.3 14.5 5.3q2.85 0 5.275 1.35Q22.2 8 24 10.55q2.1-2.7 4.45-3.975T33.5 5.3q4.45 0 7.475 3.025Q44 11.35 44 15.85q0 2.3-.825 4.55T40.3 25.425q-2.05 2.775-5.5 6.3T26.05 40.1Z"></path></symbol>

</defs>
</svg>