<?xml version="1.0" encoding="utf-8"?>
<!-- Generator: Adobe Illustrator 26.4.1, SVG Export Plug-In . SVG Version: 6.00 Build 0)  -->
<svg version="1.1" id="Layer_1" xmlns="http://www.w3.org/2000/svg" xmlns:xlink="http://www.w3.org/1999/xlink" x="0px" y="0px"
	 viewBox="0 0 48 48" style="enable-background:new 0 0 48 48;" xml:space="preserve">
<path d="M-142.05-22.95v-3h20v3H-142.05z M-142.05-33.45v-3h10v3H-142.05z M-142.05-43.95v-3h10v3H-142.05z M-104.15-22.95l-8-8
	c-0.87,0.67-1.8,1.17-2.8,1.5s-2.03,0.5-3.1,0.5c-2.77,0-5.12-0.98-7.08-2.92c-1.95-1.95-2.93-4.31-2.93-7.08s0.98-5.12,2.93-7.08
	s4.31-2.92,7.07-2.92c2.77,0,5.12,0.97,7.08,2.92c1.95,1.95,2.92,4.31,2.92,7.08c0,1.07-0.17,2.1-0.5,3.1c-0.33,1-0.83,1.93-1.5,2.8
	l8,8L-104.15-22.95z M-118.05-31.95c1.93,0,3.58-0.68,4.95-2.05c1.37-1.37,2.05-3.02,2.05-4.95c0-1.93-0.68-3.58-2.05-4.95
	c-1.37-1.37-3.02-2.05-4.95-2.05s-3.58,0.68-4.95,2.05c-1.37,1.37-2.05,3.02-2.05,4.95c0,1.93,0.68,3.58,2.05,4.95
	C-121.63-32.63-119.98-31.95-118.05-31.95z"/>
</svg>
